<svg width="15" height="15" viewBox="0 0 15 15" fill="none" xmlns="http://www.w3.org/2000/svg">
<path fill-rule="evenodd" clip-rule="evenodd" d="M4.5 1C4.63261 1 4.75979 1.05268 4.85355 1.14645C4.94732 1.24021 5 1.36739 5 1.5V2H10V1.5C10 1.36739 10.0527 1.24021 10.1464 1.14645C10.2402 1.05268 10.3674 1 10.5 1C10.6326 1 10.7598 1.05268 10.8536 1.14645C10.9473 1.24021 11 1.36739 11 1.5V2H12.5C12.8978 2 13.2794 2.15804 13.5607 2.43934C13.842 2.72064 14 3.10218 14 3.5V12.5C14 12.8978 13.842 13.2794 13.5607 13.5607C13.2794 13.842 12.8978 14 12.5 14H2.5C2.10218 14 1.72064 13.842 1.43934 13.5607C1.15804 13.2794 1 12.8978 1 12.5V3.5C1 3.10218 1.15804 2.72064 1.43934 2.43934C1.72064 2.15804 2.10218 2 2.5 2H4V1.5C4 1.36739 4.05268 1.24021 4.14645 1.14645C4.24021 1.05268 4.36739 1 4.5 1V1ZM10 3V3.5C10 3.63261 10.0527 3.75979 10.1464 3.85355C10.2402 3.94732 10.3674 4 10.5 4C10.6326 4 10.7598 3.94732 10.8536 3.85355C10.9473 3.75979 11 3.63261 11 3.5V3H12.5C12.6326 3 12.7598 3.05268 12.8536 3.14645C12.9473 3.24021 13 3.36739 13 3.5V5H2V3.5C2 3.36739 2.05268 3.24021 2.14645 3.14645C2.24021 3.05268 2.36739 3 2.5 3H4V3.5C4 3.63261 4.05268 3.75979 4.14645 3.85355C4.24021 3.94732 4.36739 4 4.5 4C4.63261 4 4.75979 3.94732 4.85355 3.85355C4.94732 3.75979 5 3.63261 5 3.5V3H10ZM2 6V12.5C2 12.6326 2.05268 12.7598 2.14645 12.8536C2.24021 12.9473 2.36739 13 2.5 13H12.5C12.6326 13 12.7598 12.9473 12.8536 12.8536C12.9473 12.7598 13 12.6326 13 12.5V6H2ZM7 7.5C7 7.36739 7.05268 7.24021 7.14645 7.14645C7.24021 7.05268 7.36739 7 7.5 7C7.63261 7 7.75979 7.05268 7.85355 7.14645C7.94732 7.24021 8 7.36739 8 7.5C8 7.63261 7.94732 7.75979 7.85355 7.85355C7.75979 7.94732 7.63261 8 7.5 8C7.36739 8 7.24021 7.94732 7.14645 7.85355C7.05268 7.75979 7 7.63261 7 7.5ZM9.5 7C9.36739 7 9.24021 7.05268 9.14645 7.14645C9.05268 7.24021 9 7.36739 9 7.5C9 7.63261 9.05268 7.75979 9.14645 7.85355C9.24021 7.94732 9.36739 8 9.5 8C9.63261 8 9.75979 7.94732 9.85355 7.85355C9.94732 7.75979 10 7.63261 10 7.5C10 7.36739 9.94732 7.24021 9.85355 7.14645C9.75979 7.05268 9.63261 7 9.5 7ZM11 7.5C11 7.36739 11.0527 7.24021 11.1464 7.14645C11.2402 7.05268 11.3674 7 11.5 7C11.6326 7 11.7598 7.05268 11.8536 7.14645C11.9473 7.24021 12 7.36739 12 7.5C12 7.63261 11.9473 7.75979 11.8536 7.85355C11.7598 7.94732 11.6326 8 11.5 8C11.3674 8 11.2402 7.94732 11.1464 7.85355C11.0527 7.75979 11 7.63261 11 7.5ZM11.5 9C11.3674 9 11.2402 9.05268 11.1464 9.14645C11.0527 9.24021 11 9.36739 11 9.5C11 9.63261 11.0527 9.75979 11.1464 9.85355C11.2402 9.94732 11.3674 10 11.5 10C11.6326 10 11.7598 9.94732 11.8536 9.85355C11.9473 9.75979 12 9.63261 12 9.5C12 9.36739 11.9473 9.24021 11.8536 9.14645C11.7598 9.05268 11.6326 9 11.5 9ZM9 9.5C9 9.36739 9.05268 9.24021 9.14645 9.14645C9.24021 9.05268 9.36739 9 9.5 9C9.63261 9 9.75979 9.05268 9.85355 9.14645C9.94732 9.24021 10 9.36739 10 9.5C10 9.63261 9.94732 9.75979 9.85355 9.85355C9.75979 9.94732 9.63261 10 9.5 10C9.36739 10 9.24021 9.94732 9.14645 9.85355C9.05268 9.75979 9 9.63261 9 9.5ZM7.5 9C7.36739 9 7.24021 9.05268 7.14645 9.14645C7.05268 9.24021 7 9.36739 7 9.5C7 9.63261 7.05268 9.75979 7.14645 9.85355C7.24021 9.94732 7.36739 10 7.5 10C7.63261 10 7.75979 9.94732 7.85355 9.85355C7.94732 9.75979 8 9.63261 8 9.5C8 9.36739 7.94732 9.24021 7.85355 9.14645C7.75979 9.05268 7.63261 9 7.5 9ZM5 9.5C5 9.36739 5.05268 9.24021 5.14645 9.14645C5.24021 9.05268 5.36739 9 5.5 9C5.63261 9 5.75979 9.05268 5.85355 9.14645C5.94732 9.24021 6 9.36739 6 9.5C6 9.63261 5.94732 9.75979 5.85355 9.85355C5.75979 9.94732 5.63261 10 5.5 10C5.36739 10 5.24021 9.94732 5.14645 9.85355C5.05268 9.75979 5 9.63261 5 9.5ZM3.5 9C3.36739 9 3.24021 9.05268 3.14645 9.14645C3.05268 9.24021 3 9.36739 3 9.5C3 9.63261 3.05268 9.75979 3.14645 9.85355C3.24021 9.94732 3.36739 10 3.5 10C3.63261 10 3.75979 9.94732 3.85355 9.85355C3.94732 9.75979 4 9.63261 4 9.5C4 9.36739 3.94732 9.24021 3.85355 9.14645C3.75979 9.05268 3.63261 9 3.5 9ZM3 11.5C3 11.3674 3.05268 11.2402 3.14645 11.1464C3.24021 11.0527 3.36739 11 3.5 11C3.63261 11 3.75979 11.0527 3.85355 11.1464C3.94732 11.2402 4 11.3674 4 11.5C4 11.6326 3.94732 11.7598 3.85355 11.8536C3.75979 11.9473 3.63261 12 3.5 12C3.36739 12 3.24021 11.9473 3.14645 11.8536C3.05268 11.7598 3 11.6326 3 11.5ZM5.5 11C5.36739 11 5.24021 11.0527 5.14645 11.1464C5.05268 11.2402 5 11.3674 5 11.5C5 11.6326 5.05268 11.7598 5.14645 11.8536C5.24021 11.9473 5.36739 12 5.5 12C5.63261 12 5.75979 11.9473 5.85355 11.8536C5.94732 11.7598 6 11.6326 6 11.5C6 11.3674 5.94732 11.2402 5.85355 11.1464C5.75979 11.0527 5.63261 11 5.5 11ZM7 11.5C7 11.3674 7.05268 11.2402 7.14645 11.1464C7.24021 11.0527 7.36739 11 7.5 11C7.63261 11 7.75979 11.0527 7.85355 11.1464C7.94732 11.2402 8 11.3674 8 11.5C8 11.6326 7.94732 11.7598 7.85355 11.8536C7.75979 11.9473 7.63261 12 7.5 12C7.36739 12 7.24021 11.9473 7.14645 11.8536C7.05268 11.7598 7 11.6326 7 11.5ZM9.5 11C9.36739 11 9.24021 11.0527 9.14645 11.1464C9.05268 11.2402 9 11.3674 9 11.5C9 11.6326 9.05268 11.7598 9.14645 11.8536C9.24021 11.9473 9.36739 12 9.5 12C9.63261 12 9.75979 11.9473 9.85355 11.8536C9.94732 11.7598 10 11.6326 10 11.5C10 11.3674 9.94732 11.2402 9.85355 11.1464C9.75979 11.0527 9.63261 11 9.5 11Z" fill="black"/>
</svg>
